<svg enable-background="new 2.2 1.4 127.1 67.1" height="229.639663" viewBox="2.2 1.4 127.1 67.1" width="435.464843" xmlns="http://www.w3.org/2000/svg"><path d="m79 2.7c.1-.4.1-1 .6-1.2s.7.4.9.7c.5.1 1 .5 1.4 0 .9-.8 2.2-.6 3.2-.2.1.3 0 .6 0 1-.3.1-.6.2-1 .3v.7c-.5.1-.8.5-1 .8.9-.2 1.9-.4 2.8.2 1 .5 2.1 2.1.9 3-.3-.3-.5-.6-.7-.9-.2 0-.4 0-.7 0 0 .1-.1.3-.2.4.2.1.6.4.8.5-.5-.2-.9-.3-1.4-.5-.1-.2-.2-.4-.4-.6.3 0 .7.1 1 .1.3-.1.6-.1.9-.2.2.4.4.7.7 1 .6-1 0-2.2-1-2.7-1-.6-2.2-.3-3.2-.1.5-1 1.4-1.7 2.1-2.6 0-.5-.7-.5-1.1-.6-.9-.1-1.6.4-2.3.9-.3-.1-.6-.2-.9-.3-.3-.2-.5-.9-.9-.6-.3.7-.5 1.5-.8 2.2-1.5-.6-3.5-1.1-4.6.4.4.5 1 .8 1.5 1.2.2-.1.5-.1.7-.2l.1.2c-.2.1-.5.2-.7.3-.6-.4-1.2-.9-1.8-1.3-.1-.8.8-1 1.4-1.2 1.1-.4 2.3-.1 3.4.3 0-.1.1-.4.2-.6-.2-.1 0-.3.1-.4m5.8 4.5c.1.1.1.1 0 0z" fill="#2b2c29" fill-opacity=".9804"/><path d="m84.5 9.6c.3.2.5.5.8.7.7.2 1.5.4 2.2.7-.4.3-.8 0-1.1-.2-.8.1-1.4-.4-1.9-1z" fill="#2b2c29" fill-opacity=".9804"/><path d="m85 10.9c.2.2.5.5.7.7.3 1.2.9 2.4.5 3.7-.2.3-.4.7-.8.5-.6-.2-.5-.9-.6-1.4-.4-.1-.9-.2-1.3-.3-.4-.2-.3-.7-.4-1.1-.1 0-.4 0-.6 0-.1-.1-.3-.4-.4-.5 0 .6.1 1.3.2 1.9.3 1.4 0 2.9.3 4.3-.3.9.2 1.7.3 2.5-.3 1.3.1 2.7-.3 4 .4.8.4 1.8.5 2.8-.7-2-.4-4.2-.3-6.3.1-.8-.2-1.5-.3-2.3-.2-1.5 0-3.1-.2-4.6-.2-1-.3-2-.4-3-.7 1.2-1.5 2.6-1.4 4.1 0 1.5 0 2.9.1 4.3-.1 3.1.5 6.2.6 9.2.7.3 1.4.5 2.2.8 0-.7-.1-1.3-.2-2 .5.4.3 1.1.3 1.7-.2 1 .5 1.9.6 2.8.5.2 1 .4 1.5.4.5-.1 1-.3 1.5-.5-.7.4-1.4.9-2.2.6-1.4-.2-1-2-1.8-2.8-.7-.4-1.5-.6-2.2-1-.4-.3-.7-.8-.9-1.2.4.4.7.8 1 1.2.1-1.5-.3-3-.3-4.5-.2-1.3 0-2.6-.3-3.9.3-1-.2-1.9 0-2.9.2-.8-.1-1.6-.2-2.5.1-1.7.9-3.2 1.9-4.4.2.4.4.8.6 1.2.5.4.8.8 1.1 1.4.5.1.9.3 1.4.4.1.4 0 .9.3 1.2.1 0 .3.1.4.1l.3-.2c.2-1.6-.5-3.1-1.2-4.4z" fill="#2b2c29" fill-opacity=".9804"/><path d="m75.8 11.5h1c-.3 1.5-.6 3-.5 4.5.1.4 0 1.7.7 1.3.2-.9.2-1.9.9-2.6 0-.3 0-.6 0-.9h.8c-.1 1.4-.4 2.8-.3 4.2.9-.2 1.2-1.3 1.6-2.1 0 .6 0 1.3-.7 1.6 0 .7-1.2 1-1.4.4.2-1.3.5-2.5.5-3.8h-.2c0 .4-.1.7-.1 1.1-.2.1-.5.3-.7.4v1.7c-.2.2-.4.3-.6.5-.2-.2-.5-.5-.5-.8-.3-1.7 0-3.4.3-5.1-.2 0-.5-.1-.7-.2 0 .6-.2 1-.6 1.4v1.1c-.3.1-.7.2-1 .3l.2-.2c.2-.1.3-.3.5-.4.1-.7.4-1.6.8-2.4z" fill="#2b2c29" fill-opacity=".9804"/><path d="m73.4 24.8c.4-.3.8-.7 1.3-.5 1.1.3 2.3.6 3.1 1.6-1.3-.8-2.8-1.7-4.4-1.1z" fill="#2b2c29" fill-opacity=".9804"/><path d="m72.1 27.4c.3-.8.5-1.7 1.1-2.4-.2.8-.5 1.7-1.1 2.4z" fill="#2b2c29" fill-opacity=".9804"/><path d="m92.3 30.1c1.5-.2 2.7.9 4 1.5 1.1.5 1.9 1.4 2.8 2.2-1-.5-1.7-1.4-2.6-1.9s-1.8-1-2.7-1.4c-1.1-.4-2.3-.1-3.3.2-1.2.4-2.2 1.3-3.3 1.8 1.2-1.4 3.2-2.1 5.1-2.4z" fill="#2b2c29" fill-opacity=".9804"/><path d="m68.6 32.3c.5-.7 1-1.4 1.6-2-.4.8-1 1.4-1.6 2z" fill="#2b2c29" fill-opacity=".9804"/><path d="m64.4 36.9c1.1-1.1 1.8-2.7 3.2-3.5-1.1 1.2-1.9 2.6-3.2 3.5z" fill="#2b2c29" fill-opacity=".9804"/><path d="m111.1 36.9c1 .5 1.6 1.6 2.6 2 1.3-.5 2.7-1 4.1-.7.6.3 1 .8 1.4 1.3-.5-.4-1-.9-1.7-1.1-1.4-.2-2.7.3-4 .8-.9-.6-1.7-1.5-2.4-2.3z" fill="#2b2c29" fill-opacity=".9804"/><path d="m62.6 38.5c.4-.5.9-.9 1.4-1.2-.3.5-.8 1-1.4 1.2z" fill="#2b2c29" fill-opacity=".9804"/><path d="m115.9 39.1c.4-.3.7.2 1 .4h1c.7.7 1.2 1.6 2.1 2.1.1.2.2.4.3.7.3.1.6.2.9.4.1.3.2.5.3.8.4.1.8.2 1.1.3.1.2.2.5.4.7.5.2 1 .3 1.5.5.1.2.1.5.2.7.5.1 1.1-.1 1.5.3.3.4-.1.7-.3 1.1.5 0 1.2-.1 1.6.4.9.9.9 2.7-.3 3.4-.4-.5-.8-1.7-1.7-1.2-1.7.8-3.7 1.2-5.2 2.5-3.4 2.6-7.2 4.7-11.1 6.6-.4 1-.9 1.9-1.3 2.9-.5 1.1-.2 2.3 0 3.4-.6-1-.7-2.3-.3-3.4.3-.9.8-1.6 1.3-2.4-13.7 6.2-28.8 8.8-43.8 9-14.5.1-29-2.2-42.6-7.2.1.2.2.5.2.7-1.2-1.7-3.3-2-5.1-2.7-1-.4-1.9-.8-2.9-1.3-1.4-.9-2.8-1.5-4.2-2.3-2-1.1-3.8-2.6-5.9-3.5-.4.5-.7.9-1.1 1.4-.3-.1-.8-.2-1-.3.3 1 .6 1.9 1 2.8-.9-.9-1.1-2.2-1.5-3.4.1-.1.2-.2.2-.3.7-.8.9-2 2.1-2.2-.1-.4-.1-.8-.2-1.2.3-.1.6-.1.8-.2.4-.6 1-.8 1.7-.8 0-.2.1-.5.1-.7.8.2 1.7.4 2.4.7.3-.2.6-.4 1-.7-.5-.3-1-.7-1-1.3.2 0 .7-.1.9-.2 0-.2.1-.6.1-.7.3 0 .5-.1.8-.1.1-.2.1-.5.2-.7.7-.5 1.1-1.2 1.3-2 .5-.3.9-.7 1.3-1.1 1.3.4 2.4 1.2 3.6 1.7 9.9 4.3 20.2 7.8 30.8 9.8 9.8 1.8 19.9 2.1 29.8.5 10-1.7 19.3-5 28.1-9 3.3-1.6 6.7-3.1 9.9-4.9m-3.5 2.4c-8.7 4.3-17.6 8.1-27.1 10.4-9.6 2.4-19.7 3.1-29.5 2-13.3-1.4-26.2-5.7-38.4-10.9-1.1-.5-2.1-1.2-3.3-1.6.3.4.5.8.6 1.3-.6-.1-1.1-.3-1.7-.4.5.4 1.4.5 1.4 1.3-.6 0-1.2-.1-1.8-.2.6.4 1.6.6 1.5 1.5-.6-.1-1.2-.4-1.8-.7-.2 0-.5.1-.7.1.5.7 2.2.5 1.8 1.6-1 .1-1.7-.8-2.7-.7.5.8 1.5.9 2.2 1.3v.7c-1.1.1-2-.8-3.1-.9.8.6 1.8.7 2.5 1.4 0 .1.1.4.1.5-.7.3-1.3-.2-2-.3.4.4 1.7.5 1.4 1.3l-.1-.2c-1.5-.4-2.8-1.3-4.3-1.6 1.1 1 2.5 1.3 3.8 1.7.4.1.4.6 0 .7-2 .2-3.4-1.5-5.3-1.7 1.3 1.2 3.1 1.7 4.8 2.4.3.4.2.6-.3.7-2-.3-3.6-1.8-5.6-2.2.2.3.4.7.8.9 1.3.9 2.9 1.5 4.3 2.2.4.1.5.5.7.9-1.3 0-2.2-.9-3.4-1.3-1.1-.3-2-1.5-3.1-1.1-.4.7-.7 1.4-.5 2.2.4-.5.6-1.2 1.3-1.4.9 0 1.6.8 2.3 1.1s1.3.9 2 1.3c5 3.1 10.5 5.4 16 7.3 9.5 3.1 19.4 4.8 29.3 5.6 11.9.9 24 .3 35.7-2.2 11.1-2.4 22-6.6 31.1-13.6 1.3-.7 2.7-1 4-1.7 1-.5 1.8.2 2.3 1 .3-.9.3-2.3-.8-2.8-1 0-1.8.8-2.7 1.1-.9.4-1.6 1.1-2.4 1.3l-.3-.1c0-.1 0-.4 0-.5 1.4-1.1 3.2-1.8 4.6-2.9-.1-.1-.4-.2-.6-.3-1.6.7-3 1.8-4.6 2.2 0-.1 0-.4 0-.6 1.1-.8 2.6-1.2 3.6-2.3-.4-.1-.7-.3-1.1-.3-1.1.5-2 1.3-3.1 1.7-.1-.2-.2-.5-.3-.7.9-.6 1.9-1.1 2.8-1.8-1-.6-1.8.5-2.7.9-.4.3-1.4.5-1.1-.3.7-.5 1.6-.9 2.2-1.6-.2-.1-.5-.3-.6-.4-.7.5-1.4 1.1-2.3 1.2 0-.1-.1-.3-.1-.4.6-.6 1.5-.8 1.7-1.6-.9-.4-1.5.9-2.5.6-.1-.9 1.5-.9 1.2-1.8-.4.2-.7.4-1.1.6-.3.2-1 .3-.9-.3.4-.4.9-.8 1.4-1.2-.7.4-1.4.8-2.3.8.2-.4.4-.8.7-1.2-1.2.8-2.6 1.3-3.9 2m-69.9 24.3c.9.4 1.9.4 2.8.6 11 1.7 22.3 1.9 33.4.5-1.3-.2-2.6.1-3.9.2-9.5.7-19.2.4-28.6-.9-1.3-.1-2.5-.4-3.7-.4z" fill="#2b2c29" fill-opacity=".9804"/><path d="m53.9 41.1c.7-.6 1.4-1.2 2.2-1.6-.6.6-1.4 1.1-2.2 1.6z" fill="#2b2c29" fill-opacity=".9804"/><path d="m12.5 40.7c.6-.9 1.9-.8 2.8-.4 1.7 1 3.4 2.1 5.3 2.7 1 .2 1.9.8 2.9 1 .9 0 1.7-.5 2.5-.4 2.5.2 5-.3 7.4 0 1 .1 1.9.7 2.8 1.2.3 0 .7-.1 1-.1-1.2.8-2.2-.6-3.4-.8-2.5-.3-5 .1-7.5 0-1.2-.1-2.4.7-3.6.1-1.6-.7-3.4-1.1-4.9-2-1.1-.6-2-1.3-3.2-1.7-.7-.2-1.4.2-2.1.4z" fill="#2b2c29" fill-opacity=".9804"/><path d="m12.3 41c0-.1 0 0 0 0z" fill="#2b2c29" fill-opacity=".9804"/><path d="m53.5 41.3s.1 0 0 0z" fill="#2b2c29" fill-opacity=".9804"/><path d="m10.5 43.6c.4-.7.7-1.4 1.3-2-.3.7-.6 1.5-1.3 2z" fill="#2b2c29" fill-opacity=".9804"/><path d="m52.6 42.3c-.1-.4.1-.6.5-.5-.1.3-.2.5-.5.5z" fill="#2b2c29" fill-opacity=".9804"/><path d="m120.7 41.6c1.1.9 2.4 1.4 3.6 2.2-1.3-.5-2.7-1-3.6-2.2z" fill="#2b2c29" fill-opacity=".9804"/><path d="m51.1 43.6h.2c-.1.1-.3.3-.4.4l-.1-.2z" fill="#2b2c29" fill-opacity=".9804"/><path d="m124.4 43.9c.9.4 1.9.8 2.7 1.4-.9-.3-1.9-.7-2.7-1.4z" fill="#2b2c29" fill-opacity=".9804"/><path d="m50.2 44.8c-.1-.4.1-.6.5-.5-.1.3-.2.5-.5.5z" fill="#2b2c29" fill-opacity=".9804"/><path d="m46.1 45.8c1.3-.5 2.7-.1 3.9-.8-1 1.1-2.6.6-3.9.8z" fill="#2b2c29" fill-opacity=".9804"/><path d="m127.2 45.5c1.1.8 1.7 2.1 2.1 3.4 0 .7-.2 1.3-.3 1.9h-.2c.1-.8.4-1.6.1-2.4-.3-1.2-1-2-1.7-2.9z" fill="#2b2c29" fill-opacity=".9804"/><path d="m2.8 49.8c.6-1 1.3-1.9 2.2-2.5-.5.7-1.1 1.3-1.6 2.1-.5.9-.8 1.9-1.2 2.8.2-.9.4-1.7.6-2.4z" fill="#2b2c29" fill-opacity=".9804"/><path d="m126.4 53.9c.7-1 1.4-1.9 2.3-2.8-.6 1-1.3 2-2.3 2.8z" fill="#2b2c29" fill-opacity=".9804"/><path d="m123.9 56.1c.5-.6 1.1-1 1.7-1.4-.5.6-1.1 1-1.7 1.4z" fill="#2b2c29" fill-opacity=".9804"/><path d="m5 57c.5.4 1 .9 1.4 1.4-.6-.3-1-.8-1.4-1.4z" fill="#2b2c29" fill-opacity=".9804"/><path d="m114.8 58.8c-.4-.5.3-.8.6-1 .3.2.5.3.8.5-.4.3-.9.7-1.4.5z" fill="#2b2c29" fill-opacity=".9804"/><path d="m113.7 58.9c.2-.3.8 0 .6.4s-.8 0-.6-.4z" fill="#2b2c29" fill-opacity=".9804"/><path d="m118 61.9c.8.3 2.3 0 2.4 1.2-.1.1-.4.3-.6.4.1-.3.2-.5.1-.8-.6-.2-1.2-.4-1.8-.6z" fill="#2b2c29" fill-opacity=".9804"/><path d="m12.3 65.4c.5-.4 1-.8 1.6-1-.4.3-.7.7-1.1 1v.7c-.2-.2-.3-.5-.5-.7z" fill="#2b2c29" fill-opacity=".9804"/><path d="m79.6 1.8c.4-.3.6.4.9.6.3.1.6.2.9.3.7-.4 1.4-1 2.3-.9.4.1 1.1.1 1.1.6-.7.8-1.6 1.6-2.1 2.6 1.1-.2 2.2-.5 3.2.1 1 .5 1.6 1.7 1 2.7-.2-.3-.5-.7-.7-1-.3.1-.6.1-.9.2-.3 0-.7-.1-1-.1.1.2.2.4.4.6.4.2.8.3 1.3.5.8.6 1.5 1.4 2 2.3-.1.2-.3.5-.4.7-.7-.3-1.4-.5-2.2-.7-.3-.2-.5-.5-.8-.7l-.1.2c0 .1-.1.2-.1.2.2.3.4.5.6.8.7 1.3 1.4 2.9.9 4.4l-.3.2c-.1 0-.3-.1-.4-.1-.2-.3-.1-.8-.2-1.2-.5-.1-.9-.2-1.4-.4-.3-.5-.6-1-1.1-1.4-.2-.4-.4-.8-.6-1.2-1 1.3-1.9 2.8-1.9 4.4v.4c-.4.8-.7 1.9-1.6 2.1-.1-1.4.2-2.8.3-4.2-.2 0-.6 0-.8 0v.9c-.7.7-.7 1.7-.9 2.6-.7.4-.6-.8-.7-1.3 0-1.5.2-3 .5-4.5-.3 0-.7 0-1 0-.4.8-.7 1.6-.9 2.5-.2.1-.3.3-.5.4l-.2.2c-.1.1-.3.3-.4.4-.3-.1-.6-.2-.9-.3.2-2.1 1.2-4 2.4-5.6-.4.3-1 .3-1.4-.1-.1.1-.4.3-.6.4-.7-.2-1.5-.2-2.2-.1-.3-.2-.3-.5-.3-.8.3-.2.5-.4.8-.5 1.3-1.3 3.1-1.7 4.8-1.8-.1-.1-.2-.4-.3-.6l-.1-.2c-.2.1-.5.1-.7.2-.3-.4-.9-.7-1.3-1.3 1.1-1.5 3.2-.9 4.6-.4.4-.6.6-1.4 1-2.1zm-1 11.3c.2.1.2.1 0 0z" fill="#048045"/><path d="m36.3 16.9c2.8-.4 5.8.4 7.9 2.2 3.1 2.8 3.8 7.9 1.3 11.3-1 1.6-2.8 2.7-4.6 3.3-1.9.9-4 .6-6 .1-2.8-.8-5.1-3.2-6-6-.5-1.9-.5-4.1.5-5.9.6-1.6 1.9-2.7 3.2-3.7 1.2-.6 2.4-1.1 3.7-1.3zm-3.2 5.2c-1 1.5-1.4 3.4-.9 5.2.7 1.6 2 3.1 3.7 3.7 1.6.6 3.4.4 4.9-.3-1.8.1-3.8-.2-5.2-1.5-1.7-1.3-2.3-3.8-1.6-5.8.6-1.1 1.2-2.2 2.1-3.1-1.1.2-2.2.8-3 1.8zm5.7.6c-.2.4-.3.9-.5 1.3-.5.2-1.1.3-1.7.4.5.4 1 .6 1.3 1.1 0 .6 0 1.2-.1 1.8.4-.3.8-.7 1.3-1 .6-.1 1.2.3 1.8.5-.2-.6-.6-1.1-.5-1.7.4-.4.8-.8 1.2-1.1-.6 0-1.3 0-1.9 0-.3-.5-.6-.9-.9-1.3z" fill="#048045"/><path d="m73.4 24.8c1.6-.6 3.1.3 4.4 1.1.7.8 1.4 1.5 2 2.4.3.4.5.9.9 1.2.7.4 1.5.6 2.2 1 .8.8.4 2.6 1.8 2.8.8.3 1.6-.2 2.2-.6l.2-.1c1.1-.5 2.1-1.4 3.3-1.8 1.1-.3 2.2-.6 3.3-.2.9.4 1.8.9 2.7 1.4 1 .5 1.7 1.4 2.6 1.9.1.1.3.2.4.2 1.7-.7 3.6-.6 5.2.3.9.6 1.6 1.5 2.8 1.7s2.7-.2 3.6.8c.7.9 1.6 1.7 2.5 2.3 1.2-.5 2.6-1 4-.8.6.2 1.1.7 1.7 1.1.4.3.7.7 1 1.1.2.4.3.8.5 1.1.9 1.2 2.3 1.7 3.6 2.2l.1.1c.8.7 1.7 1.1 2.7 1.4 0 0 .1.1.1.2.6.9 1.3 1.8 1.7 2.9.3.8 0 1.6-.1 2.4 0 .1 0 .2-.1.3-.8.9-1.5 1.9-2.3 2.8-.3.3-.5.6-.9.8-.6.4-1.2.8-1.7 1.4-1.3 1.1-2.9 1.8-4.4 2.6-.7.4-1.5.6-2.3.8-.4.9.2 1.7.9 2.3l.2.2c.6.2 1.2.4 1.8.6 0 .3-.1.6-.1.8-.2.2-.4.5-.7.7-2 1.3-4.3 2.3-6.8 2.2-1.5 0-3.3-.3-4.4-1.5-.2-1.1-.5-2.3 0-3.4.4-1 1-1.9 1.3-2.9 3.9-1.9 7.6-4 11.1-6.6 1.5-1.3 3.4-1.7 5.2-2.5.9-.5 1.2.7 1.7 1.2 1.2-.7 1.1-2.4.3-3.4-.4-.5-1.1-.3-1.6-.4.2-.3.5-.7.3-1.1-.4-.4-1-.2-1.5-.3-.1-.2-.1-.5-.2-.7-.5-.2-1-.3-1.5-.5-.1-.2-.3-.5-.4-.7-.4-.1-.8-.2-1.1-.3-.1-.3-.2-.5-.3-.8-.3-.1-.6-.2-.9-.4-.1-.2-.2-.5-.3-.7-.9-.5-1.4-1.4-2.1-2.1-.3 0-.6 0-1 0-.3-.2-.6-.7-1-.4-3.2 1.8-6.6 3.4-10 4.9-8.8 4-18 7.3-27.6 8.8-9.9 1.6-20 1.3-29.8-.5-10.6-2-20.9-5.5-30.8-9.8-1.2-.5-2.3-1.3-3.6-1.7-.4.4-.9.7-1.3 1.1-.2.8-.6 1.5-1.3 2-.1.2-.1.5-.2.7-.3 0-.5.1-.8.1 0 .2-.1.6-.1.7-.2 0-.7.1-.9.2.1.6.5 1 1 1.3-.3.2-.6.4-1 .7-.8-.3-1.6-.5-2.4-.7 0 .2-.1.5-.1.7-.7 0-1.3.1-1.7.8-.3.1-.6.1-.8.2.1.4.1.8.2 1.2-1.3.4-1.5 1.6-2.2 2.4l-.3.1c.4-.9.7-1.9 1.2-2.8.5-.7 1.1-1.3 1.6-2.1 0-.1.1-.2.2-.2 1.3-.9 2.9-1.2 4-2.3.4-.4.9-.8 1.3-1.1.7-.5 1-1.3 1.3-2 .1-.2.3-.4.5-.6.1-.1.2-.2.2-.2.6-.2 1.3-.6 2-.4 1.2.3 2.1 1.1 3.2 1.7 1.6.9 3.3 1.3 4.9 2 1.2.6 2.4-.2 3.6-.1 2.5.1 5-.3 7.5 0 1.2.2 2.2 1.6 3.4.8.1 0 .4-.1.5-.2.5-.2 1.1-.2 1.6-.3 1.2.2 2.4.7 3.5 1.3 1 .6 2.1.4 3.2.3 1.3-.2 2.9.3 3.9-.8l.1-.1h.1c.3-.1.4-.2.5-.5.1-.1.2-.2.3-.3s.3-.3.4-.4c.3-.5.7-1 1.3-1.3.3-.1.5-.2.5-.5v-.2c.1-.1.4-.3.5-.3.1 0 .2-.1.3-.2.8-.4 1.6-.9 2.2-1.6.6-.9 1.6-1.3 2.6-1.5.6.3 1.3.5 2 .6.6.1 1.4.4 2 0 .6-.2 1-.7 1.4-1.2.1-.1.2-.3.4-.4 1.3-.9 2.1-2.4 3.2-3.5.3-.4.6-.7 1-1.1.6-.6 1.2-1.3 1.6-2 .7-1 1.1-2 1.9-2.9.6-.7.9-1.6 1.1-2.4l.1-.2zm.9.6c-.5.4-.7 1.1-.9 1.7.4.1.8.3 1.1.4.1.1.2.2.2.3.3-.2 1-.6 1 .1 0 .5-.1.9-.3 1.3-.4 0-.5-.3-.8-.5-.4.9-1.5.9-2.4.8-.1 1.5-1.1 2.7-2.1 3.7 1 .2.4 1.1 0 1.6.3.3.4.6.3 1 1 .3-.6 1.4.6 1.6-.3.6-.7 1.2-1.1 1.8.4-.2.7-.9 1.2-.7 0 .7-.6 1.1-.9 1.7.7-.5 1.4-.9 2.2-1.1 0-.9.5-1.7 1-2.4.7-.7 1.4-1.5 2.4-1.6 1.7-.4 3.1.9 4.4 1.7 1 .8 2.1 1.1 3.3 1.5.1-.1.4-.2.5-.3.8.1 1.8 1.1 2.3.1.9.4 1.8.9 2.8 1.1-.3-.4-.9-.6-.9-1.1 1 0 1.8.7 2.8.8-.3-.3-.6-.5-.9-.8.1-.1.3-.3.4-.4-.9-.8-1.9-1.4-2.7-2.1-.9-.7-1.9-1.2-3-1.4-1.5-.3-2.7-1.4-3.6-2.5-1.7-1.5-2.8-3.6-4.4-5.2-.5-.6-1.5-1-2.5-1.1zm15.2 6.7c.1.1.3.3.4.4-.2.5.2.9.5 1.2-.1.3-.2.6-.3.9.9.1.5.9.3 1.5.5.4 1 1 1.7 1.1 1 .2 1.9.9 2.9 1.1 1.1-.2 2.5-.4 3.5.4.3-.6.9-.1 1.4-.3.2.4.8.7.5 1.2-.1 0-.4 0-.6 0-.4.1-.7 0-1.1-.1 0 .1-.1.3-.1.4.6.4 1.2.8 1.8 1.3.2-.1.5-.2.7-.2.2-.3.4-.5.7-.6.1-.2.2-.5.2-.7.2.1.5.4.6.5-.1-.3-.2-.8-.3-1.1.4.2.7.5 1 .8-.1-.4-.1-.8-.2-1.2.4.3.8.7 1.1 1-.1-.5-.4-1-.3-1.6.3.2.5.4.8.6 0-.1-.1-.4-.1-.6.1-.1.2-.4.2-.5-.5-.1-1.1-.3-1.6-.4 0-.8.4-1.4 1-1.8-.8-.5-1.8-.7-2.7-.8-2-.2-3.6 1.5-5.6 1.6-.3.3-.6.8-1.1.9-.4 0-1 .4-1.1-.3.5-.5 1.1-.8 1.6-1.1-.4-.3-.8-.6-1.2-.9.1-.2.2-.5.3-.7-.5-.4-1-.8-1.4-1.3.1-.4.1-.7.2-1.1-.9-.8-2.4.2-3.7.4zm7.2 2.7c-.2.3-.3.6-.5.9.8.2 1.6-.5 2-1.1-.5.1-1 .4-1.5.2zm-21.4 3.9c-.9-.1-1.7.1-2.3.7.2.5.5 1 .5 1.5-.4.4-.8.8-1.2 1.2.5-.3 1-.7 1.5-.9 0 .2-.1.5-.2.7 1 0 .1.9-.1 1.3.5-.4 1-.8 1.5-1.2 0 .2.1.5.1.7.3-.4.7-.9 1.3-1 0 .2 0 .6.1.8.4-.3.7-.7 1.1-1 .1.1.3.4.4.5 1-1.1 2.7-1.9 4.2-1.1 2.3 1.2 4.9 1.9 7.3 2.9-1-.6-2.1-1-3-1.5-.4-.2-.2-.7-.4-1-.1.1-.4.4-.6.5-.5-.1-.4-.7-.6-1 0 .2-.1.6-.2.8-.5-.5-.5-1.4-1.3-1.6-1.5-.6-2.7-1.5-4-2.4-1-.5-1.9-1.4-3.1-1.4-.6.6-.8 1.5-1 2.5zm-6.9-2.3c-.4.1-.2.7.2.5.3-.1.2-.8-.2-.5zm37.1 1.6c-.1.1-.3.2-.4.2.3.4.5.9.8 1.3-.1-.4-.2-.8-.3-1.2.1 0 .2-.1.2-.2.4.3.7.8 1 1.2-.1-.4-.2-.8-.2-1.2.5.2.8.6 1.2 1-.2-.6.1-1 .6-1.2.2.3.5.6.7.8 0-.3-.1-.6-.1-.8.5.1.9.1 1.4.2.1.4.2.7.3 1.1.2.2.4.3.5.5.2-.2.4-.4.5-.6-.9-.6-1.5-1.5-2.5-1.8-1.2-.4-2.4.6-3.7.7zm-16.7 2.2c.3.2.6.3.9.5-.2.1-.5.3-.7.4.4.7.7 1.5 1.3 2-.3-.7-.7-1.4-1-2.1.9.4 1.1 1.4 1.6 2.1.4.7 1.2 1 1.6 1.7.4.6.7 1.3 1.4 1.7-.2-.5-.5-1-.8-1.5.1-.3.3-.6.7-.7.2-.2.5-.3.8-.4 0-.5 0-.9.6-.9 0-.2 0-.5 0-.7h.6c0-.1 0-.4.1-.6.5-.3.8.4 1 .7.3.5.7 1.5-.3 1.6.1.5.2 1 .2 1.5-.3-.1-.5-.2-.8-.3.1.4.2.8.3 1.2.7-.5 1.2-1.5 2.2-1.3.3-.2.6-.4.9-.6.3.4.6.9.9 1.4-.2-.6-.4-1.2-.5-1.9.4.2.8.6 1.2.9-.6-1.1-1.1-2.2-1.8-3.3-.4.2-.9.4-1.4.5-.2-.5-.3-1-.5-1.5-1-.3-1.9-.8-2.8-1.2-2-.6-3.8.5-5.7.8zm-30.8.8c-.1.6-.1 1.1-.2 1.7-.1.7.6 1.2.8 1.8-.4 1-1.7.8-2.3 1.6-1.1 1.2-2.3 2.1-3.4 3.3-.7.7-1.6 1.2-2.2 2 1.2-.3 2.4-.8 3.5-1.5 1.2-.6 2.6-.9 3.8-1.6-.4-.5-.6-1.1-.4-1.7.8-.4.9.8 1.2 1.2 0-.7-.2-1.4 0-2.1.2-.1.4-.2.7-.2.1-.2.2-.6.2-.8 1.2.2.8 1.7 1.1 2.6 1-.5 1.8-1.5 2.9-1.8 1.7-.6 3.4.7 5.1.3.6-.2 1.2-.5 1.8-.8-.7.2-1.3.3-2 .4v-.4c-.5-.1-.7-.6-1-.9.5-.2.9-.4 1.4-.5-1.8-1.5-4-2.6-6.3-3.1-.9-.2-1.6-1-2.6-.9-.9-.1-1.6.8-2.1 1.4zm50.1-1.3c-.4.8.8.1 0 0zm-1.8.3c-.5.7.8 0 0 0zm.8 0c.1.1.1.1 0 0zm-2.7.2c-.3.8.9 0 0 0zm1.1 0c.2.2.2.2 0 0zm1 .6c-.1.4 0 .5.4.4.1-.4 0-.5-.4-.4zm1.1 0c-.5.7.8 0 0 0zm.8-.1c.1.9.7-.4 0 0zm-39.3 1c.3 0 .8-.4.7-.8-.3-.1-.7.4-.7.8zm36.7-.8c-.4.8.8.1 0 0zm-27.6 2.3c.1.1.3.3.4.4-.6.4-.9 1-1.3 1.5-.1.3-.2.7-.2 1 .6-.1 1.1-.3 1.7-.5.1.3.3.7.4 1 0-.5 0-1 0-1.5.2 0 .5.1.7.2 1.3-.8 2.8-.3 3.8.7-1.1 0-2.1.5-3.2.7-.1-.1-.2-.2-.3-.3 0 .1-.1.4-.1.5-1 .1-2 0-3 .3.7.8 1.8.6 2.7 1 .6.3 1.5.2 1.9.8.3-.1.7-.2.9.1.3.1.6.1.9.2.8.1 1.5.1 2.3.2.1 0 .2.1.3.1 1.2-.1 2.5 0 3.7-.5-.2-.5-.4-1.1-.1-1.6.2 0 .5.1.6.1 0 .4.1.8.1 1.2.2-.4.1-.9.5-1.1.1.2.4.5.5.6.1-.1.2-.3.3-.4-.8-.2-1.5-.4-2.3-.6.1.8.1 1.8-.8 2.2.3-.7.2-1.4-.1-2 .1-.1.3-.3.4-.4-1.4-.7-2.9-1.2-4.1-2.2.2-.1.6-.3.7-.3-.1-.2-.2-.3-.3-.5.3-.2.6-.5.9-.7.1.1.3.3.4.3 1.2.2 2.8.4 3.3 1.7.1-.4.4-.6.7-.6.3.2.5.4.8.6-.1-.1-.2-.3-.2-.4-2.8-1-5.6-2-8.2-3.6-.8-.5-1.8-.4-2.7-.3-1.1.3-1.4 1.5-2 2.1zm26.6-2c.1.2.1.2 0 0zm-18 .4c-.1.4 0 .5.4.4.1-.4 0-.5-.4-.4zm1.6.2c-.2.4.2 1 .7.9 0-.4-.3-.9-.7-.9zm17.6.1c-.1.4 0 .5.4.4.1-.4 0-.6-.4-.4zm1.1-.1c.1.1.1.1 0 0zm-33.5 2.5c.3-.2.6-.5.7-.8-.3-.5-1.1.6-.7.8zm1.5.7c.7-.5 1.2-1.2 1.7-1.8-.7.5-1.4 1-1.7 1.8zm-45.3-1 .3.4c-.8 0-1.6.1-2.3.4.7.4 1.3.8 1.9 1.3.5 0 1 0 1.5.1-.1.4-.3.8 0 1.2.9.7 2.1.9 3.2.8-.3-.5-.6-1-.8-1.5 0-.7 1.4-.1 1.4-.8-.4-.6-1.1-.9-1.7-1.2 0 .4-.1.8-.1 1.1-.2-.1-.5-.3-.6-.3-.1.1-.2.4-.3.6-.3 0-.7.2-1-.1-.5-.3-.3-.9-.4-1.4-.2 0-.7.1-.9.1 0-.1.1-.4.1-.6zm65.8 2.3c-.2-.6-.4-1.2-.6-1.8 0 .7.3 1.3.6 1.8zm5.3-1.2c-.4.7.9 0 0 0zm-63.8.4c1.3 1.6 2.3 3.4 4.1 4.6.8.5 1.8.7 2.7.8-.1-.1-.4-.4-.5-.6 1.3-.4 2.6-1.1 3.9-1.5-2-1.1-4.1-1.9-6-3.1-.1.3-.1.7-.2 1-1 .4-2.1.1-2.8-.6 0-.2 0-.5 0-.7-.3.1-.9.1-1.2.1zm33.6.1c.1.1.1.1 0 0zm1.6.7c.1.9.8-.3 0 0zm-10.1 1.6c-.6.6-1.5.6-2.1 1.2-.3.4-.8.2-1.2.2-.5.2-1.1.4-1.6.6-.4.3-.6.8-.8 1.2.2 0 .5.1.7.2 0 .4-.1.9-.2 1.3.3-.4.5-.9.9-1.1.5.3.3.9.3 1.4.2-.4.4-.8.8-1h1.4c.3-.2.3-.9.8-.7.7.5 1.2 1.1 1.7 1.8 1.2 0 2.5 0 3.7-.1.3-.2.5-.6.8-.8.8.1 1.7-.1 2.5-.1.2.1.5.4.6.5-.3-.6-.5-1.1-.9-1.6.1-.4.3-.8.4-1.1h1.2c-1-.9-2.2-1.6-3.4-2.2-1.1-.3-2.2-.6-3.3-.8-1-.5-1.6.5-2.3 1.1zm-9.7.2c-.4.8.8.1 0 0zm70 7c-2 1.2-3.8 2.7-6.1 3.1-.2-.2-.3-.4-.5-.6 1.2-.7 2.5-1.3 3.7-1.9-.6.2-1.3.4-1.6-.3-.6.3-1.4.8-1.8-.1-1.6.7-3.1 1.5-4.7 2.2l.8.4c-.2.2-.4.5-.6.7.2.3.3.6.1 1 .1.2.2.7.3 1 1.7-.9 3.4-1.7 5.2-2.4 3.1-1 5.8-2.8 8-5.2-1 .7-1.8 1.5-2.8 2.1zm-3.1-1.6c-.1.4 0 .5.3.3.2-.3.1-.4-.3-.3zm-1.3.8c.1.2.1.2 0 0zm-.8.3c-.1.4 0 .5.3.4.2-.4.1-.6-.3-.4zm-3.3 6.3c0 .4 0 .7-.1 1.1-.8.2-1.8 0-2.5.6 1 .1 2-.1 3 .1-.6 1.5-2.6.8-3.9.8 1.4.7 3 .3 4.5 0 .6-.2.7.6.7 1 .9-.3 1.8-.7 2.5-1.4-1.2-.7-2.2-1.6-2.5-3-.7.3-1.2.5-1.7.8zm-4.3 0c.2.2.8-.1.6-.4-.2-.2-.8.1-.6.4zm-.7 2.6c.6-.9 1.4-1.6 2.3-2.3-1 .4-1.9 1.2-2.3 2.3z" fill="#048045"/><path d="m3.8 53.1c.4-.5.7-.9 1.1-1.4 2.1 1 3.9 2.4 5.9 3.5 1.4.8 2.8 1.5 4.2 2.3-.2-.1-.5-.2-.7-.2-.1.2-.2.5-.3.6-1.1-.5-2.1-1.2-3.4-1.3.7.5 1.5.7 2 1.5-.8-.2-1.6-.5-2.4-.8.2.1.5.4.6.5v.7c1.7.8 3.6 1.5 5.2 2.5v.7c.3-.1.5-.3.8-.4 0 .2 0 .5.1.7 1.7.7 3.2 1.7 4.7 2.8-.7-1.2-2.2-1.5-2.9-2.5.8 0 1.5.3 2.3.6-.6-.4-1.2-.7-1.9-1 .2-.2.3-.4.5-.6-.2-.1-.5-.2-.6-.2.1-.1.3-.4.4-.6-.2-.1-.5-.3-.7-.4.1-.2.3-.4.4-.7-.4-.2-.8-.4-1.2-.5 1.8.7 4 1 5.1 2.7.7 1.3 1 2.8.6 4.2-.2 1.1-1.2 1.8-1.9 2.5-1.3.3-2.7.4-4.1.2-1.7-.6-3.3-1.3-4.7-2.3 0-.2 0-.5 0-.7.4-.3.7-.7 1.1-1 .3-.3.5-.6.8-.8 0-.4 0-.8-.1-1.1-.1.1-.4.2-.5.3-.9-.6-1.8-.9-2.8-1.1-1.8-.8-3.5-1.8-4.8-3.1-.6-.8-1.1-1.3-1.6-1.7-.1 0-.2-.1-.2-.2-.3-.4-.6-.8-1-1.2-.4-.9-.7-1.9-1-2.8.2.1.7.2 1 .3z" fill="#048045"/><path d="m42.5 65.8c1.2 0 2.4.3 3.6.4 9.5 1.3 19.1 1.6 28.6.9 1.3-.1 2.6-.3 3.9-.2-11.1 1.4-22.3 1.1-33.4-.5-.9-.2-1.8-.2-2.7-.6z" fill="#048045"/><path d="m36.8 6.4c0-.4.5-.5.7-.8 1 .8.6 2.2.6 3.3 0 1.7-.1 3.5.1 5.2.3-1.5.2-3.1.4-4.7 0-.5.6-.4.9-.5.1.7.1 1.5.2 2.2.2-.4.4-.8.6-1.2.3.1.8.1.7.5.1.9-.2 1.7-.3 2.6-.1.3-.2.7-.3 1.1.7-.9.7-2.1 1.3-3.1.3-.2.9-.1.8.4-.3 1.5-1.2 2.9-1.3 4.5.6-1.1 1-2.3 1.4-3.4.1-.4.4-.7.8-1 .4.2.5.5.4.9-.4.9-.9 1.7-1.2 2.6.6-.9 1-1.9 1.6-2.8.2-.3.6-.2 1-.3.2 1.3-.9 2.2-1.3 3.4.8-.8 1.2-1.8 1.8-2.7.2-.4.7-.4 1.1-.3.1.5-.2 1-.5 1.3-.9 1.1-1.7 2.2-2.2 3.5 1.1-.8 1.8-2.1 2.8-3.1.5-.6.9-1.7 1.9-1.6.5.4-.1 1-.4 1.3-1.2 1.3-2.5 2.6-3.5 4.1.9-.6 1.7-1.4 2.3-2.2.9-.9 1.8-2 2.8-2.9.5-.5.8-1.1 1.4-1.5.4-.3.9.1.9.6-.3.6-.9.9-1.4 1.3-1.1 1-2 2.1-3.1 3.1-.7.8-1.6 1.4-2.2 2.3 1.8-.9 3.1-2.4 4.7-3.5.2.2.8.5.4.8-.4.4-.9.8-1.3 1.2.6-.2 1.1-.6 1.7-.5.1.9-1 1.1-1.5 1.5-1 .7-2 1.2-2.9 2 1.6-.3 2.9-1.4 4.4-2 .1.1.4.3.5.4-1.2 1.1-2.9 1.5-4.3 2.2.2.4.5.8.7 1.3 1.4-.4 2.7-.9 4.1-1.2.1.1.4.3.5.4-1.3 1.1-3.1.8-4.7 1.4.3.1.5.4.9.3 1.4-.3 2.8-.8 4.3-.9l.8.4c-.2.2-.5.4-.8.5-1.6.3-3.3.4-4.8.9 2.3.3 4.6-.4 6.9-.4.4 0 .4.5.6.8-2.3.9-4.8.4-7.3.9 2.3.4 4.7-.1 7 0 1 .1 2.3-.6 3.1.4-.3.2-.6.5-1 .5-2.7.2-5.4-.1-8.1.2 1.8.5 3.7.3 5.5.6-.1.3-.2.5-.2.8-1.9.1-3.8-.5-5.8-.4 1.5.5 3.2.4 4.7 1 .2.4.2.6-.2.7-1.7-.2-3.3-.6-5-.8 1.3.9 3 .8 4.3 1.6 0 .9-1.1.3-1.7.4.4.2.9.4 1.3.5 0 .3 0 .6-.1.8-1.5-.2-2.8-1-4.2-1.6-.2-.1-.4 0-.6.1 1.4.9 3.2 1.2 4.3 2.6-.2 0-.6.1-.8.2-1.4-.4-2.6-1.4-3.9-2 1.3 1.3 3 1.8 4.4 3-.1.3-.4.7-.7.4-1.5-.7-2.8-1.8-4.3-2.4 1.4 1.5 3.5 2.3 4.8 3.9-.3.9-1.1 0-1.6-.3-1.4-.8-2.4-2-3.8-2.7.8 1.2 2 1.9 2.9 2.9 1.4 1.4 3 2.6 4.4 4 0 .2-.1.6-.1.8-.7-.1-1.3-.6-1.8-1.1-1.2-1.3-2.5-2.7-4-3.7-.5-.9-1.3-1.6-2.2-2.2.8 1.1 1.6 2.2 2.6 3.1.4.5 1 .9 1 1.7-.7.3-1.3-.5-1.7-.9-.9-1.1-1.7-2.3-2.6-3.4-.3.2-.7.5-1 .8.6 1.2 1.3 2.2 1.9 3.4.2.4-.1 1-.5.8-.3-.3-.5-.8-.7-1.1.2.6.3 1.2.4 1.8-.4-.1-.8-.3-1-.8-.5-1-.9-2.1-1.2-3.3-.1 0-.4.1-.5.1.4 1 .8 2 1.2 3 .1.5.4.9.2 1.4-.3.1-.5.1-.7-.2-.6-1.3-.9-2.7-1.5-4 .2 1.6 1 3.1 1 4.8-.2-.1-.7-.1-.8-.4-.4-1.4-.7-2.8-1.2-4.2.1 1.9.5 3.9.5 5.8-.1.1-.4.3-.6.4-.9-1.9-.4-4.1-.9-6.2-.5 2.8.2 5.6.1 8.4.1 0 .4.1.6.1-.5 0-1.1.1-1.6.3.3-1.3-.1-2.7-.1-4 0-1.4.1-2.8-.1-4.2-.6 1.9-.4 3.9-.7 5.9-.3.6-1 .1-.9-.4.2-1.8.4-3.5.6-5.3-.5 1.3-.5 2.8-.8 4.2 0 .4-.3.6-.7.6-.4-.4-.1-1.1-.1-1.6.1-1.4.6-2.7.7-4.1-.9 1.3-.8 3-1.5 4.4-.1.5-.9.1-.8-.2.2-1.5 1-2.9 1.2-4.5-.9 1.1-1.2 2.6-1.7 3.9-.1.3-.3.6-.6.7-.3-.2-.4-.5-.2-.8.4-1.1 1-2.1 1.2-3.3-1.3.6-1.2 2.6-2.5 3.4-.1-.1-.2-.3-.3-.4.9-1.4 1.4-2.9 2.5-4.1-.1-.1-.3-.3-.4-.4-.9 1.7-1.9 3.2-3.1 4.7-.2-.1-.5-.2-.6-.3.8-1.7 2-3 3-4.6-.1-.1-.2-.3-.3-.4-.5.4-.8 1.1-1.2 1.5-.8.9-1.7 1.8-2.2 3-.3.8-1.4 1-1.9.3.8-.7 1.5-1.3 2.1-2.2.8-1.1 1.8-2 2.5-3.2-1.5 1.2-2.8 2.7-4.1 4.1-.8.9-1.5 1.9-2.5 2.6-.4.2-.6-.2-.9-.3.5-.8 1.3-1.3 1.9-2 1.6-1.8 3.6-3.1 5-5-1.2.2-1.9 1.2-2.8 1.8-.8.6-1.6 1.4-2.5 1.7-.1-.1-.2-.4-.2-.5 1.3-1.5 3.2-2.4 4.5-3.9-1.6.8-2.8 2.1-4.4 2.7-.3.1-.7-.3-.4-.6 1.2-1.1 2.7-1.8 4-2.6.1-.2.3-.5.4-.7-1.6.5-2.9 1.7-4.5 2.1-.3.1-.6-.3-.4-.5.6-.5 1.3-.8 2-1.3-.8 0-1.5.8-2.3.5 0-.3.1-.5.3-.6 1.3-.8 2.8-1 4-1.9-1.7.3-3.3 1.1-5 1.3.1-.2.2-.6.2-.7 1-.5 2.1-.6 3.1-1.1-1.4.1-2.6.7-4 .8-.1-.1-.3-.4-.4-.6 1.8-.7 3.9-.6 5.6-1.5-1.6 0-3.2.1-4.7.4-.8.1-1.6.3-2.4-.1.7-1.1 2.1-.5 3.2-1-1.8 0-3.6.3-5.4.3-.5.1-1.5-.1-1.1-.8 1.5-.4 3.1-.1 4.7-.1 1.8 0 3.7 0 5.5-.2-.3-.2-.6-.4-.9-.4-1.8-.3-3.6-.4-5.4-.5-.4 0-.6-.4-.6-.7.8-.3 1.7 0 2.6 0 1.4.1 2.8.6 4.3.4-1.6-.5-3.2-.5-4.8-.9-.4 0-.4-.5-.5-.8 1.9-.1 3.7.6 5.6.7-1.3-.9-3-.9-4.5-1.5l-.2-.2.1-.4h.6c1.4.4 2.7.9 4.2.9-1.2-.9-2.9-1.1-4.3-1.8-.6-.2-.1-.9.3-.7 1.5.4 2.9 1.4 4.5 1.5-.8-.6-1.7-1-2.6-1.5-.6-.3-1.3-.4-1.7-.9-.2-.5.6-.5.8-.6-.2-.3-.9-.5-.6-1 .1-.1.4-.2.5-.2 1.3 1 2.8 1.9 4.4 2.6-1.4-1.4-3.3-2.4-4.8-3.8-.3-.2-.2-.6 0-.8.4-.2.9.2 1.2.4 1.4 1.3 2.7 2.6 4.3 3.6-1-1.1-2.1-2-3.1-2.9-1.5-1.1-2.9-2.3-3.9-3.8.4-.3.9-.5 1.3 0 1.3 1.3 2.5 2.6 3.9 3.7.8.6 1.3 1.5 2.2 1.9-1.3-1.5-2.7-2.8-3.9-4.3 0-.1 0-.4.1-.6.9-.3 1.3.7 1.8 1.1 1.1 1 1.8 2.3 3 3.2-.8-1.3-1.9-2.4-2.6-3.7 0-.2.1-.6.1-.8.3.2.6.2.9.5 1 1.2 1.8 2.5 2.8 3.7-.5-1.2-1.1-2.3-1.8-3.4-.1-.3-.5-.6-.4-1 .2-.2.5-.3.8-.3.9 1.3 1.3 2.8 2.3 4.1-.4-1-.8-2.1-1.4-3.1-.2-.4-.3-.8-.3-1.3.3 0 .6-.1.8-.1.6 1.3 1.2 2.7 1.9 4-.5-1.3-.9-2.6-1.5-3.9.2-.2.3-.4.5-.7.3.3.7.6 1 1-.1-.6-.3-1.1-.1-1.7.3-.1.7-.1.8.3.7 1.6.6 3.4 1.3 4.9.1-2.2-.5-4.3-.6-6.4 0-.5.8-.8 1-.2.4 2.1.3 4.3.6 6.4.2-1.1 0-2.3 0-3.4-.4-2-1-3.9-.8-5.7zm-1.4 10c-1.4.5-2.9 1-4.1 2-1 1.1-2.1 2.3-2.6 3.8-.4 1.2-.5 2.5-.5 3.8.1 2.3 1.2 4.4 2.7 6 2.4 2.4 6.1 3.3 9.4 2.6 2.1-.4 4-1.7 5.4-3.3 1.7-2.1 2.6-5 1.9-7.7-.5-2.8-2.5-5.3-5.1-6.5-2.3-1-4.8-1.1-7.1-.7zm-5.2 1.3c.2.1.2.1 0 0zm17.8 11.2c1 .3 2 .7 3 .8-.9-.5-1.9-.8-3-.8z" fill="#907637"/><path d="m51.5 19.6c.4-.3.5.2.7.5-1.3.6-2.6 1-4 1.5-.2-.2-.5-.4-.7-.5 1.4-.4 2.7-1 4-1.5z" fill="#907637"/><path d="m80.4 15.8c0-1.5.7-2.8 1.4-4.1.1 1 .2 2 .4 3 .2 1.5.1 3.1.2 4.6.1.8.4 1.5.3 2.3-.1 2.1-.4 4.2.3 6.3 0 .1 0 .2.1.2.1.7.1 1.3.2 2-.7-.2-1.5-.5-2.2-.8-.1-3.1-.7-6.1-.6-9.2-.1-1.4-.1-2.8-.1-4.3z" fill="#86755d"/><path d="m78.6 13.1c.2.1.2.1 0 0z" fill="#86755d"/><path d="m68.4 36.4c.4-.2.5.4.2.5-.4.2-.6-.4-.2-.5z" fill="#86755d"/><path d="m108.1 39.7c.8.1-.4.8 0 0z" fill="#86755d"/><path d="m106.3 40c.8 0-.5.7 0 0z" fill="#86755d"/><path d="m107.1 40c.1.1.1.1 0 0z" fill="#86755d"/><path d="m104.4 40.2c.9 0-.3.8 0 0z" fill="#86755d"/><path d="m105.5 40.2c.2.2.2.2 0 0z" fill="#86755d"/><path d="m106.5 40.8c.4-.1.5 0 .4.4-.3.1-.5 0-.4-.4z" fill="#86755d"/><path d="m108.4 40.7c.7-.4.1.9 0 0z" fill="#86755d"/><path d="m105.8 40.9c.8.1-.4.8 0 0z" fill="#86755d"/><path d="m86.8 41.6c.4-.1.5 0 .4.4-.3.1-.4 0-.4-.4z" fill="#86755d"/><path d="m106 41.9c.4-.1.5 0 .4.4-.4 0-.5-.1-.4-.4z" fill="#86755d"/><path d="m107.1 41.8c.1.1.1.1 0 0z" fill="#86755d"/><path d="m100.9 45.1c.9 0-.4.7 0 0z" fill="#86755d"/><path d="m70.7 45.6c.1.1.1.1 0 0z" fill="#86755d"/><path d="m72.3 46.3c.8-.3.1.9 0 0z" fill="#86755d"/><path d="m111.9 48.9c.2-.4.5-.7.7-1.1.4 0 .8.1 1.2.1-.3.4-.5.7-.7 1.1-.4 0-.8 0-1.2-.1z" fill="#86755d"/><path d="m52.5 48.1c.8.1-.4.8 0 0z" fill="#86755d"/><path d="m19.3 48.8c.6-.5 1.6-.7 2.3-.1-.1.2-.1.3-.2.5-.5-.2-1-.5-1.6-.6.5.7 1.2 1 2 1.3-1 .2-2 0-3-.3.2 0 .6-.1.8-.1-.1-.2-.2-.5-.3-.7z" fill="#86755d"/><path d="m113.3 49.4c.5.1.6.6.8 1 .2 1.3-.8 2.5-1.9 3-1 .5-2 .9-3.1 1.1-.5.1-.9-.4-1.3-.6-1.1 1.4-2.9 2.7-4.8 2.4.2-.7.5-1.3.7-2 1.1.6 2.4 0 3.4-.6.8-.5.1-1.4 0-2.1-.3-.8.4-1.5.9-2.1.2 1.2.4 2.4 1.1 3.4.1 0 .3.1.4.1 1.3-.4 2.5-.9 3.6-1.6-.2-.2-.5-.4-.8-.6.4-.3.7-.9 1-1.4z" fill="#86755d"/><path d="m19 51.2c.4-.4 1.2-.7 1.7-.3.4.6.1 1.3.2 2 1 .4 2 .8 3.1.5.3 1.2 1.8 1.1 2.7 1.5 1-.8 2.1-1.7 3.5-1.8.9 0 .8 1.1.6 1.6-.2.7-1.1.9-1.7 1.2 2.5.3 4.7 1.7 7.2 1.7-.6-1.5-2.4-1.9-3.1-3.3-.2-.4-.1-1 .2-1.3.6-.5 1.5-.7 2.2-.8 2.1-.4 4.3-.5 6.4-.5-.3.5-.5 1.2-1.1 1.2-2.5.4-5 0-7.5.6 1.1.9 2.4 1.5 3.5 2.5 1 .9 1.9 1.9 2.9 2.7.8.5 1.8.7 2.7.7.1-.1.2-.2.2-.3.4-1.7-.1-3.4.1-5 .1-.5.7-.6 1.1-.9.3.4.6.9.9 1.3-.3.3-.8.5-.9 1-.2 1.4.2 2.8-.3 4.2-.3.9-1.3 1.3-2.2 1.1-1-.2-2-.4-2.7-1.1-.8-.8-1.5-1.7-2.2-2.5 0 .7-.4 1.5-1.2 1.6-2 .1-3.8-.9-5.7-1.3.2.6.5 1.3.1 1.9-.5.7-1.5.7-2.2.3-1.2-.7-1.4-2.2-1.6-3.5-1.1-.4-2.5-.6-3.2-1.7-.9.4-1.9 0-2.7-.3-.6 1-1.6 2-2.9 1.9-1.4-.1-2.7-1-3.6-2 1.6.9 3.7 1.3 5.4.4.2-.2.7-.2.5-.5-.5-.3-1.2-.5-1.6-1 0-.8.7-1.3 1.2-1.8zm-.2.4c0 .8.9.9 1.5 1.1-.3-.6-.8-.9-1.5-1.1zm8.6 3.3c.8.1 1.5.2 2.3 0 .5-.2-.2-.7-.4-.8-.8-.2-1.3.5-1.9.8zm-.7 1.6c.3 1.3 1.4 2.6 2.9 2.3.1-.3 0-.6-.3-.9-.7-.7-1.7-1-2.6-1.4z" fill="#86755d"/><path d="m23.1 51.7c.3-.2.6-.4.9-.5.3.3.7.6 1 1-.3.2-.6.4-.9.5-.3-.4-.6-.7-1-1z" fill="#86755d"/><path d="m91.8 53.8c.3-.3.6-.5 1-.8.4.1.7.2 1.1.3-.3.4-.6.7-.9 1.1-.5-.2-.9-.4-1.2-.6z" fill="#86755d"/><path d="m90.7 53.6c.3 0 .7 0 1 .1 0 .3 0 .5-.1.8-.1.1-.4.3-.5.4-.4-.1-.8-.2-1.2-.4.3-.3.5-.6.8-.9z" fill="#86755d"/><path d="m99.9 54.4c.4-.3 1-.4 1.4 0 .7.9.5 2.1.2 3.1-.5 1.4-1.4 2.8-2.8 3.6-1.2.7-2.7.8-4.1.7 2.3-.5 4.3-1.9 5.8-3.8.3-.4.5-.9.7-1.4-.6.4-1.3 1-2 .8-.5-.1-.5-.7-.4-1 .2-.8.6-1.6 1.2-2zm-.6 1.9c.5-.1 1-.3 1.4-.7-.6-.2-1.4-.1-1.4.7z" fill="#86755d"/><path d="m79.6 55.8c-.1-.7.5-1.1 1.1-1.5.4.3.7.6 1.1.8-.3.4-.8.8-.8 1.4 0 1.5.7 3.1 0 4.6-.6 1.2-2.1 1.4-3.3 1.5-.9.1-1.6-.5-2.3-.9-.9.6-1.7 1.3-2.7 1.4-.7.1-1.4.2-2 0s-.7-.8-1-1.2c-.5.7-1 1.5-1.9 1.6-1.1.1-2.2.2-3.3-.1-.4.3-.7.8-1.3.7-1 0-1.8-.7-2.6-1.3-.9 1-2.3.9-3.5.6-.6-.1-1-.6-1.1-1.2-.1-1.1.3-2.2.1-3.3 0-.4-.2-.9-.1-1.3.3-.4.8-.6 1.2-.9.2 1.5.1 3-.1 4.5-.3.4-.1.8.3.8 1 .1 2.2.3 3.1-.4.7-.4 1.2-1.3 2.1-1.3 1 .3 1.4 1.7 2.6 1.8 1 0 2 0 3-.2.9-.4 1-1.6 1.1-2.5.1-1.3-.3-2.8.6-3.9.2.3.7.6.7 1.1 0 1.5-.4 3 0 4.4.1.3.2.7.6.8 1 .1 2-.1 3-.4-.5-.2-1-.4-1.5-.5.5-.9 1.3-1.7 2.3-1.9.9-.2 2.2-.3 2.8.5.3.8-.6 1.3-1.1 1.8 1-.1 1.9-.1 2.9-.4.3-.1.5-.4.5-.7 0-1.5-.5-2.9-.5-4.4zm-18.2 6c.5.4 1 .7 1.7.8 0-.6.2-1.5-.6-1.7-.5.2-.8.6-1.1.9z" fill="#86755d"/><path d="m118.1 54.3c.1.2.1.2 0 0z" fill="#86755d"/><path d="m117.3 54.6c.4-.1.5 0 .3.4-.3 0-.4-.1-.3-.4z" fill="#86755d"/><path d="m83.6 56.8c-.2-.9.7-1.3 1.2-1.9 0 1.6.4 3.1.3 4.7 0 .7-.4 1.4-.9 1.9 0-1.6-.4-3.1-.6-4.7z" fill="#86755d"/><path d="m92 55.3c1.1-.6 2.1.5 2.1 1.5.3 2.1-2.1 3.8-4 3.3-.8-.4-.5-1.4-.3-2.1.6-.9 1.2-2 2.2-2.7zm-1.6 3.1c1.1.3 2.2-.3 3.1-.8-.7-.2-1.4-.6-2.1-.4-.5.1-1.1.6-1 1.2z" fill="#86755d"/><path d="m49.7 59.5c.7-.4 1.5-.7 2.3-.4.5.3.6 1.1 0 1.4-.5.3-.8-.4-1.1-.6-.3-.5-.8.1-1.1.2.9 1.3 2.5 1.7 4 1.5-.4.3-.7.8-1.2.9-1.5.2-2.9.4-4.4.5.5-.6 1.1-.9 1.9-1-.5-.4-1.3-.7-1.5-1.4.1-.5.7-.9 1.1-1.1z" fill="#86755d"/><path d="m109.7 60.9c-.1-.3.4-.6.6-.4.1.3-.4.6-.6.4z" fill="#86755d"/><g fill="#fefefe"><path d="m35.4 16.4c2.3-.4 4.9-.3 7 .8 2.6 1.2 4.6 3.7 5.1 6.5.7 2.7-.2 5.6-1.9 7.7-1.4 1.6-3.3 2.9-5.4 3.3-3.3.7-6.9-.3-9.4-2.6-1.5-1.7-2.6-3.8-2.7-6 .1-1.3.1-2.6.5-3.8.6-1.5 1.6-2.6 2.6-3.8 1.2-1 2.7-1.5 4.2-2.1zm.9.5c-1.3.2-2.6.7-3.7 1.4-1.3 1-2.6 2.1-3.2 3.7-1 1.8-1 3.9-.5 5.9.9 2.8 3.2 5.2 6 6 1.9.5 4.1.8 6-.1 1.8-.7 3.5-1.7 4.6-3.3 2.5-3.4 1.9-8.5-1.3-11.3-2-1.9-5.1-2.7-7.9-2.3z"/><path d="m30.2 17.7c.2.1.2.1 0 0z"/><path d="m33.1 22.1c.8-.9 1.9-1.5 3-1.9-.9.9-1.5 2-2.1 3.1-.7 2-.1 4.5 1.6 5.8 1.4 1.3 3.3 1.6 5.2 1.5-1.5.7-3.3.9-4.9.3-1.7-.6-3-2-3.7-3.7-.6-1.7-.2-3.6.9-5.1z"/><path d="m38.8 22.7c.3.4.5.9.9 1.2.6.1 1.3 0 1.9 0-.4.4-.8.7-1.2 1.1-.1.6.4 1.1.5 1.7-.6-.1-1.2-.5-1.8-.5-.5.3-.8.6-1.3 1 0-.6.1-1.2.1-1.8-.3-.5-.9-.7-1.3-1.1.6-.1 1.2-.2 1.7-.4.2-.3.4-.8.5-1.2z"/><path d="m74.3 25.4c1 0 2 .5 2.8 1.1 1.6 1.6 2.6 3.7 4.4 5.2.9 1.2 2.1 2.2 3.6 2.5 1.1.2 2.1.7 3 1.4s1.9 1.3 2.7 2.1c-.1.1-.3.3-.4.4.3.2.6.5.9.8-1-.1-1.8-.7-2.8-.8.1.5.6.7.9 1.1-1-.2-1.9-.7-2.8-1.1-.5.9-1.6 0-2.3-.1-.1.1-.4.2-.5.3-1.1-.4-2.3-.8-3.3-1.5-1.3-.8-2.7-2.1-4.4-1.7-1 .1-1.8.9-2.4 1.6-.5.7-1 1.5-1 2.4-.8.2-1.6.6-2.2 1.1.3-.6.9-1 .9-1.7-.5-.2-.8.4-1.2.7.4-.6.8-1.2 1.1-1.8-1.1-.3.5-1.3-.6-1.6.1-.4 0-.7-.3-1 .3-.5 1-1.4 0-1.6 1-1 2-2.2 2.1-3.7.9.1 1.9.1 2.4-.8.2.2.4.5.8.5.2-.4.3-.9.3-1.3 0-.6-.7-.2-1-.1-.1-.1-.2-.2-.2-.3-.4-.1-.8-.3-1.1-.4 0-.6.1-1.3.6-1.7z"/><path d="m48 28.9c1.1 0 2.1.2 3 .8-1-.1-2-.5-3-.8z"/><path d="m89.5 32.1c1.3-.2 2.8-1.2 3.9-.2-.1.4-.1.7-.2 1.1.4.5.9.9 1.4 1.3-.1.2-.2.5-.3.7.4.3.8.6 1.2.9-.6.3-1.2.6-1.6 1.1 0 .6.7.3 1.1.3.5-.1.8-.5 1.1-.9 2 0 3.6-1.8 5.6-1.6.9.1 1.9.3 2.7.8-.7.4-1 1-1 1.8.5.1 1.1.3 1.6.4-.1.1-.2.4-.2.5s.1.4.1.6c-.3-.2-.5-.4-.8-.6-.1.6.2 1.1.3 1.6-.4-.3-.7-.7-1.1-1 0 .4.1.8.2 1.2-.3-.3-.6-.7-1-.8.1.3.2.8.3 1.1-.2-.1-.5-.4-.6-.5-.1.2-.2.5-.2.7-.3.1-.5.3-.7.6-.2.1-.5.2-.7.2-.6-.5-1.2-.9-1.8-1.3 0-.1.1-.3.1-.4.3.1.7.2 1.1.1h.6c.3-.4-.3-.8-.5-1.2-.5.3-1.1-.3-1.4.3-1-.8-2.3-.6-3.5-.4-1-.3-1.9-.9-2.9-1.1-.7-.1-1.2-.7-1.7-1.1.1-.6.6-1.4-.3-1.5.1-.3.2-.6.3-.9-.3-.3-.6-.7-.5-1.2-.3-.2-.5-.5-.6-.6z"/><path d="m96.7 34.8c.5.3 1 0 1.5-.2-.5.6-1.2 1.3-2 1.1.1-.4.3-.7.5-.9z"/><path d="m75.3 38.7c.3-.9.5-1.9 1-2.7 1.2-.1 2.1.9 3.1 1.4 1.3.9 2.5 1.9 4 2.4.8.2.8 1.1 1.3 1.6 0-.2.1-.6.2-.8.2.4.1.9.6 1 .1-.1.4-.4.6-.5.1.3 0 .9.4 1 1 .6 2.1.9 3 1.5-2.4-.9-4.9-1.7-7.3-2.9-1.5-.7-3.1.1-4.2 1.1-.1-.1-.3-.4-.4-.5-.4.3-.7.7-1.1 1 0-.2 0-.6-.1-.8-.5.2-.9.6-1.3 1 0-.2-.1-.5-.1-.7-.5.3-1 .7-1.5 1.2.2-.4 1.1-1.4.1-1.3 0-.2.1-.5.2-.7-.6.2-1 .5-1.5.9.4-.4.9-.7 1.2-1.2 0-.5-.3-1-.5-1.5.6-.4 1.4-.7 2.3-.5z"/><path d="m105.5 38c1.3-.1 2.5-1 3.7-.6 1.1.2 1.7 1.2 2.5 1.8-.2.2-.4.4-.5.6-.2-.2-.4-.3-.5-.5-.1-.4-.2-.7-.3-1.1-.5-.1-.9-.1-1.4-.2 0 .3.1.6.1.8-.2-.3-.5-.6-.7-.8-.5.2-.8.6-.6 1.2-.3-.4-.7-.8-1.2-1 .1.4.2.8.2 1.2-.3-.4-.6-.9-1-1.2-.1 0-.2.1-.2.2.1.4.2.8.3 1.2-.3-.4-.6-.9-.8-1.3.2-.2.4-.3.4-.3z"/><path d="m88.8 40.2c1.9-.3 3.7-1.4 5.6-.9.9.4 1.8.9 2.8 1.2.2.5.3 1 .5 1.5.5-.1.9-.3 1.4-.5.7 1 1.2 2.2 1.8 3.3-.4-.3-.7-.7-1.2-.9.1.7.3 1.3.5 1.9-.3-.5-.5-.9-.9-1.4-.3.2-.6.4-.9.6-.9-.2-1.5.8-2.2 1.3-.1-.4-.2-.8-.3-1.2.3.1.5.2.8.3 0-.5-.1-1-.2-1.5.9-.1.6-1.1.3-1.6-.2-.3-.4-1-1-.7 0 .1 0 .4-.1.6-.1 0-.4 0-.6 0v.7c-.6 0-.6.5-.6.9-.3.1-.6.2-.8.4-.4.1-.5.4-.7.7.3.5.5 1 .8 1.5-.7-.4-1-1.1-1.4-1.7-.4-.7-1.2-1-1.6-1.7-.5-.7-.8-1.7-1.6-2.1.2.7.6 1.4 1 2.1-.6-.5-1-1.3-1.3-2 .2-.1.5-.3.7-.4-.2-.1-.5-.2-.8-.4z"/><path d="m112.4 41.5c1.3-.7 2.7-1.2 3.8-2.2-.2.4-.5.8-.7 1.2.8.1 1.6-.4 2.3-.8-.5.4-.9.8-1.4 1.2-.1.6.6.5.9.3.4-.2.7-.4 1.1-.6.3.9-1.3.9-1.2 1.8.9.3 1.6-.9 2.5-.6-.2.9-1.2 1.1-1.7 1.6 0 .1.1.3.1.4.9-.1 1.6-.7 2.3-1.2.2.1.5.3.6.4-.7.6-1.5 1-2.2 1.6-.3.8.7.6 1.1.3.9-.4 1.7-1.5 2.7-.9-.8.7-1.9 1.2-2.8 1.8.1.2.2.5.3.7 1.1-.4 2.1-1.2 3.1-1.7.4 0 .7.2 1.1.3-1 1.1-2.4 1.5-3.6 2.3v.6c1.7-.4 3.1-1.5 4.6-2.2.1.1.4.2.6.3-1.4 1.1-3.1 1.8-4.6 2.9v.5l.3.1c.9-.3 1.6-1 2.4-1.3.9-.4 1.7-1.1 2.7-1.1 1.1.5 1 1.8.8 2.8-.4-.8-1.3-1.6-2.3-1-1.2.7-2.7 1-4 1.7-9.1 7-20 11.2-31.1 13.6-11.7 2.5-23.7 3.1-35.7 2.2-9.9-.8-19.8-2.5-29.3-5.6-5.6-1.8-11-4.1-16-7.3-.7-.4-1.3-1-2-1.3-.8-.4-1.4-1.1-2.3-1.1-.7.2-.9.9-1.3 1.4-.2-.8.1-1.6.5-2.2 1.2-.4 2.1.8 3.1 1.1 1.2.3 2.2 1.3 3.4 1.3-.1-.4-.3-.7-.7-.9-1.4-.7-3-1.2-4.3-2.2-.4-.2-.5-.6-.8-.9 2 .4 3.6 1.9 5.6 2.2.5-.1.6-.3.3-.7-1.6-.7-3.4-1.2-4.8-2.4 1.9.2 3.3 1.9 5.3 1.7.4-.1.4-.6 0-.7-1.3-.4-2.8-.8-3.8-1.7 1.5.3 2.8 1.3 4.3 1.6l.3-.1c.3-.8-.9-.9-1.4-1.3.7.1 1.3.6 2 .3 0-.1-.1-.4-.1-.5-.7-.6-1.8-.7-2.5-1.4 1.1.2 2 1 3.1.9 0-.2 0-.5 0-.7-.8-.4-1.7-.5-2.2-1.3 1 0 1.7.8 2.7.7.4-1.2-1.3-1-1.8-1.6.2 0 .5-.1.7-.1.5.3 1.1.6 1.8.7.1-.9-.9-1.1-1.5-1.5.6.1 1.2.2 1.8.2 0-.8-.9-.9-1.4-1.3.6.1 1.1.3 1.7.4 0-.5-.3-.9-.6-1.3 1.1.4 2.1 1.2 3.3 1.6 12.3 5.3 25.1 9.5 38.4 10.9 9.9 1.1 19.9.4 29.5-2 9.4-1.9 18.3-5.7 27-9.9zm-.5 7.4c.4 0 .8 0 1.2.1.2-.4.5-.7.7-1.1-.4 0-.8-.1-1.2-.1-.2.4-.5.8-.7 1.1zm-92.6-.1c.1.2.2.5.3.6-.2 0-.6.1-.8.1 1 .3 2 .5 3 .3-.7-.3-1.5-.6-2-1.3.5.1 1.1.3 1.6.6.1-.2.1-.3.2-.5-.6-.5-1.7-.3-2.3.2zm94 .6c-.3.5-.6 1.1-.9 1.6.3.2.5.3.8.6-1.1.7-2.4 1.2-3.6 1.6-.1 0-.3-.1-.4-.1-.7-1-.9-2.2-1.1-3.4-.5.6-1.2 1.2-.9 2.1.1.7.7 1.6 0 2.1-1 .6-2.3 1.2-3.4.6-.3.7-.5 1.3-.7 2 1.9.3 3.7-1 4.8-2.4.4.3.8.7 1.3.6 1.1-.2 2.1-.7 3.1-1.1 1.1-.6 2.1-1.7 1.9-3-.2-.6-.4-1.1-.9-1.2zm-94.3 1.8c-.5.4-1.1 1-1 1.7.3.6 1.1.7 1.6 1 .2.3-.4.3-.5.5-1.7.9-3.7.5-5.4-.4 1 1 2.2 1.8 3.6 2 1.3.1 2.3-.9 2.9-1.9.9.3 1.8.7 2.7.3.7 1.2 2.1 1.3 3.2 1.7.2 1.3.4 2.8 1.6 3.5.7.5 1.7.4 2.2-.3.4-.6 0-1.3-.1-1.9 1.9.4 3.7 1.5 5.7 1.3.8-.1 1.1-.9 1.2-1.6.7.8 1.4 1.7 2.2 2.5.7.7 1.8.9 2.7 1.1s1.9-.2 2.2-1.1c.4-1.4.1-2.8.3-4.2.1-.5.6-.7.9-1-.3-.4-.6-.8-.9-1.3-.4.3-1 .4-1.1.9-.2 1.7.3 3.4-.1 5-.1.1-.2.2-.2.3-.9 0-1.9-.2-2.7-.7-1.2-.5-2-1.6-3-2.5-1.1-1-2.4-1.6-3.5-2.5 2.4-.6 5-.3 7.5-.6.7-.1.8-.8 1.1-1.2-2.2 0-4.3.2-6.4.5-.8.2-1.6.3-2.2.8-.4.3-.4.9-.2 1.3.7 1.4 2.5 1.8 3.1 3.3-2.5 0-4.7-1.4-7.2-1.7.6-.3 1.5-.5 1.7-1.2.2-.6.3-1.7-.6-1.6-1.4 0-2.5.9-3.5 1.8-.9-.4-2.4-.3-2.7-1.5-1.1.3-2.1-.1-3.1-.5 0-.6.2-1.4-.2-2-.7-.5-1.4-.1-1.8.2zm4.1.5 1 1c.3-.2.6-.4.9-.5-.3-.3-.7-.6-1-1-.3.1-.6.3-.9.5zm68.7 2.1 1.2.6c.3-.4.6-.8.9-1.1-.4-.1-.7-.2-1.1-.3-.4.3-.7.5-1 .8zm-1.1-.2c-.3.3-.5.6-.8 1 .4.1.8.2 1.2.4.1-.1.4-.3.5-.4 0-.3 0-.5.1-.8-.3-.2-.7-.2-1-.2zm9.2.8c-.6.5-1 1.2-1.2 2-.1.4-.1.9.4 1 .8.2 1.4-.5 2-.8-.2.5-.4 1-.7 1.4-1.4 1.9-3.5 3.3-5.8 3.8 1.4.1 2.8 0 4.1-.7 1.4-.7 2.2-2.1 2.8-3.6.3-1 .5-2.2-.2-3.1-.3-.5-1-.3-1.4 0zm-20.3 1.4c0 1.5.5 2.9.5 4.4 0 .3-.2.6-.5.7-.9.3-1.9.3-2.9.4.5-.5 1.4-.9 1.1-1.8-.6-.8-1.9-.7-2.8-.5-1.1.2-1.9 1-2.3 1.9.5.2 1 .3 1.5.5-1 .3-2 .4-3 .4-.4 0-.5-.5-.6-.8-.4-1.5 0-3 0-4.4 0-.5-.4-.8-.7-1.1-.9 1.1-.5 2.6-.6 3.9 0 .9-.1 2.1-1.1 2.5-1 .2-2 .2-3 .2-1.2-.1-1.5-1.5-2.6-1.8-.9 0-1.4.9-2.1 1.3-.9.7-2.1.5-3.1.4-.4 0-.7-.5-.6-.9.2-1.5.2-3 .1-4.5-.4.2-.9.4-1.2.9-.1.4.1.9.1 1.3.2 1.1-.2 2.2-.1 3.3.1.6.5 1.1 1.1 1.2 1.2.3 2.6.4 3.5-.6.8.6 1.6 1.3 2.6 1.3.6 0 .9-.4 1.3-.7 1.1.3 2.2.2 3.3.1.9-.1 1.4-.9 1.9-1.6.2.5.4 1.1 1 1.2.7.2 1.4 0 2 0 1.1-.1 1.9-.9 2.7-1.4.7.4 1.4 1 2.3.9 1.2-.1 2.7-.3 3.3-1.5.8-1.4 0-3 0-4.6 0-.6.5-1 .8-1.4-.4-.3-.7-.6-1.1-.8-.3.4-.9.9-.8 1.6zm4 1c.2 1.6.6 3.1.6 4.7.5-.5.9-1.1.9-1.9.1-1.6-.3-3.1-.3-4.7-.6.6-1.4 1.1-1.2 1.9zm8.4-1.5c-1 .7-1.6 1.7-2.1 2.8-.3.6-.6 1.7.3 2.1 1.9.5 4.3-1.2 4-3.3-.1-1.1-1.2-2.2-2.2-1.6zm-42.3 4.2c-.5.3-1 .6-1.2 1.2.2.7.9 1 1.5 1.4-.7.1-1.4.4-1.9 1 1.5-.1 3-.3 4.4-.5.5 0 .9-.5 1.2-.9-1.5.2-3.2-.2-4-1.5.3-.1.8-.7 1.1-.2.3.2.6.9 1.1.6s.5-1.2 0-1.4c-.7-.4-1.5-.1-2.2.3z"/><path d="m58 41c.5-.7 1.2-1.5 2.2-1.5 1-.1 1.7.7 2.6.9 2.3.6 4.5 1.7 6.3 3.1-.5.2-.9.4-1.4.5.2.4.4.9 1 .9v.4c.7-.1 1.4-.2 2-.4-.6.2-1.2.5-1.8.8-1.7.4-3.4-.9-5.1-.3-1.1.3-1.9 1.2-2.9 1.8-.3-.9.1-2.4-1.1-2.6-.1.2-.2.6-.2.8-.2 0-.5.1-.7.2-.2.7 0 1.4 0 2.1-.3-.5-.4-1.6-1.2-1.2-.2.6.1 1.2.4 1.7-1.2.7-2.6 1-3.8 1.6-1.1.7-2.2 1.2-3.5 1.5.6-.8 1.5-1.3 2.2-2 1.1-1.2 2.3-2.1 3.4-3.3.6-.8 1.9-.5 2.3-1.6-.3-.6-.9-1.1-.8-1.8-.1-.4 0-1 .1-1.6z"/><path d="m107.6 40.8c.8 0-.5.7 0 0z"/><path d="m69.1 41.7c-.1-.4.4-.8.7-.8.1.4-.3.8-.7.8z"/><path d="m78.2 43.2c.6-.7.9-1.8 2-2 .9-.1 1.9-.2 2.7.3 2.6 1.5 5.4 2.5 8.2 3.6.1.1.2.3.2.4-.3-.2-.5-.4-.8-.6-.4.1-.6.3-.7.6-.5-1.3-2.1-1.5-3.3-1.7-.1-.1-.3-.3-.4-.3-.3.3-.6.5-.9.7.1.2.2.3.3.5-.2.1-.6.3-.7.3 1.2 1 2.7 1.5 4.1 2.2-.1.1-.3.3-.4.4.3.6.4 1.3.1 2 .9-.4.9-1.4.8-2.2.8.2 1.5.4 2.3.6-.1.1-.2.3-.3.4-.1-.2-.4-.5-.5-.6-.3.3-.3.7-.5 1.1 0-.4-.1-.8-.1-1.2-.2 0-.5-.1-.6-.1-.3.5 0 1.1.1 1.6-1.2.5-2.4.5-3.7.5-.1 0-.2-.1-.3-.1-.8-.1-1.5-.1-2.3-.2-.3-.1-.6-.1-.9-.2-.3-.3-.6-.2-.9-.1-.5-.6-1.3-.5-1.9-.8-.9-.5-2-.3-2.7-1 1-.3 2-.2 3-.3 0-.1.1-.4.1-.5.1.1.2.2.3.3 1.1-.2 2.1-.7 3.2-.7-1-1-2.6-1.5-3.8-.7-.2 0-.5-.1-.7-.2v1.5c-.2-.3-.3-.7-.4-1-.5.2-1.1.4-1.7.5.1-.3.2-.7.2-1 .4-.5.7-1.2 1.3-1.5-.2-.2-.3-.4-.4-.5z"/><path d="m104.8 41.2c.1.2.1.2 0 0z"/><path d="m88.4 41.8c.4 0 .7.5.7.9-.4.1-.9-.5-.7-.9z"/><path d="m73.6 44.3c-.4-.2.4-1.3.7-.8-.1.3-.4.6-.7.8z"/><path d="m75.1 45c.3-.8 1-1.3 1.7-1.8-.6.7-1 1.4-1.7 1.8z"/><path d="m29.8 44 .5-.1c0 .1-.1.4-.1.6.2 0 .7-.1.9-.1 0 .5-.2 1.2.4 1.4.3.3.7.1 1 .1.1-.1.2-.4.3-.6.2.1.5.3.6.3 0-.4.1-.8.1-1.1.6.3 1.3.6 1.7 1.2 0 .7-1.4 0-1.4.8.2.5.5 1 .8 1.5-1.1.1-2.3-.2-3.2-.8-.3-.4-.1-.8 0-1.2-.5 0-1 0-1.5-.1-.6-.5-1.3-.9-1.9-1.3.8-.2 1.5-.4 2.3-.4-.1.2-.5-.2-.5-.2z"/><path d="m95.6 46.3c-.4-.5-.6-1.2-.6-1.8.3.6.5 1.2.6 1.8z"/><path d="m37.1 45.5c.3 0 .8-.1 1.1-.1v.7c.8.7 1.8 1 2.8.6.1-.3.2-.7.2-1 1.9 1.2 4 2 6 3.1-1.3.4-2.6 1.1-3.9 1.5.1.1.4.4.5.6-.9-.2-1.9-.4-2.7-.8-1.6-1.1-2.6-3-4-4.6z"/><path d="m62.2 47.9c.7-.6 1.3-1.6 2.3-1.4 1.1.2 2.2.5 3.3.8 1.2.6 2.4 1.3 3.4 2.2-.4 0-.8 0-1.2 0-.2.4-.3.7-.4 1.1.3.5.6 1.1.9 1.6-.2-.1-.5-.4-.6-.5-.8.1-1.7.2-2.5.1-.3.3-.5.6-.8.8-1.2.1-2.5.2-3.7.1-.5-.7-1-1.3-1.7-1.8-.5-.2-.5.5-.8.7-.5 0-1-.1-1.4 0-.3.3-.5.7-.8 1 0-.5.3-1.1-.3-1.4-.4.3-.7.7-.9 1.1.1-.4.2-.9.2-1.3-.2 0-.5-.1-.7-.2.3-.4.4-.9.8-1.2.5-.2 1.1-.4 1.6-.6.4 0 .9.2 1.2-.2.6-.3 1.5-.3 2.1-.9z"/><path d="m18.8 51.6c.6.1 1.2.5 1.5 1.1-.6-.2-1.4-.3-1.5-1.1z"/><path d="m122.5 55.1c1-.6 1.8-1.5 2.8-2-2.2 2.4-4.9 4.3-8 5.2-1.8.7-3.5 1.5-5.2 2.4-.1-.2-.2-.7-.3-1 .2-.4.1-.7-.1-1 .2-.2.4-.5.6-.7-.2-.1-.6-.3-.8-.4 1.6-.7 3.1-1.5 4.7-2.2.3.9 1.2.4 1.8.1.3.7 1.1.4 1.6.3-1.2.6-2.5 1.2-3.7 1.9.2.2.3.4.5.6 2.3-.4 4.1-2 6.1-3.2zm-7.7 3.7c.5.2 1-.2 1.4-.5-.3-.2-.5-.3-.8-.5-.3.2-1 .5-.6 1zm-1.1.1c-.3.3.3.7.6.4.2-.3-.3-.7-.6-.4z"/><path d="m119.4 53.5c.4-.1.5 0 .3.3-.3.2-.4.1-.3-.3z"/><path d="m27.4 54.9c.6-.3 1.1-1 1.9-.8.2.1.9.6.4.8-.8.2-1.5.1-2.3 0z"/><path d="m99.3 56.3c0-.8.8-.8 1.4-.7-.4.4-.9.6-1.4.7z"/><path d="m10.5 56.7c1.2.1 2.3.8 3.4 1.3.1-.2.2-.5.3-.6.2.1.5.2.7.2 1 .4 1.9.9 2.9 1.3.4.2.8.3 1.2.5-.1.2-.3.4-.4.7.2.1.5.3.7.4-.1.1-.3.4-.4.6.2.1.5.2.6.2-.2.2-.3.4-.5.6.6.3 1.3.7 1.9 1-.7-.3-1.5-.5-2.3-.6.8 1.1 2.3 1.4 2.9 2.5-1.5-1.1-3-2.1-4.7-2.8 0-.2 0-.5-.1-.7-.3.1-.5.3-.8.4 0-.2 0-.6 0-.7-1.6-1.1-3.4-1.7-5.2-2.5 0-.2 0-.5 0-.7-.2-.1-.5-.4-.6-.5.8.3 1.6.6 2.4.8-.4-.7-1.3-.9-2-1.4z"/><path d="m26.7 56.5c.9.4 1.9.8 2.6 1.5.2.2.4.5.3.9-1.5.1-2.6-1.1-2.9-2.4z"/><path d="m90.4 58.4c-.1-.6.5-1 1-1.1.7-.2 1.4.1 2.1.4-.9.4-2 1-3.1.7z"/><path d="m114 60.9c.5-.3 1.1-.5 1.6-.8.3 1.4 1.4 2.3 2.5 3-.7.7-1.6 1.1-2.5 1.4 0-.4-.1-1.2-.7-1-1.5.3-3.1.7-4.5 0 1.3 0 3.2.7 3.9-.8-1-.3-2 0-3-.1.7-.6 1.7-.4 2.5-.6.1-.4.1-.8.2-1.1z"/><path d="m61.4 61.8c.3-.3.7-.7 1.1-.9.7.2.5 1.1.6 1.7-.7-.2-1.2-.5-1.7-.8z"/><path d="m109 63.5c.4-1.1 1.3-1.9 2.3-2.3-.8.6-1.7 1.4-2.3 2.3z"/></g></svg>